<?xml version="1.0" standalone="no"?>
<!DOCTYPE svg PUBLIC "-//W3C//DTD SVG 20010904//EN"
 "http://www.w3.org/TR/2001/REC-SVG-20010904/DTD/svg10.dtd">
<svg version="1.0" xmlns="http://www.w3.org/2000/svg"
 width="227.000000pt" height="113.000000pt" viewBox="0 0 227.000000 113.000000"
 preserveAspectRatio="xMidYMid meet">
<metadata>
Created by potrace 1.10, written by Peter Selinger 2001-2011
</metadata>
<g transform="translate(0.000000,113.000000) scale(0.100000,-0.100000)"
fill="#000000" stroke="none">
<path d="M490 1066 c-155 -55 -372 -333 -374 -479 -2 -122 115 -115 316 21 41
27 80 57 87 66 26 31 27 15 5 -91 -27 -125 -29 -156 -11 -151 7 3 25 66 42
149 26 128 32 144 49 141 12 -3 17 1 14 10 -6 18 -108 23 -175 8 -85 -19 -128
-67 -88 -100 11 -9 19 -10 26 -3 8 8 7 13 0 17 -6 4 -11 12 -11 17 0 14 77 46
130 53 l45 6 -30 -26 c-114 -96 -294 -192 -337 -178 -91 29 12 261 190 426
127 117 221 128 252 30 7 -20 18 -42 25 -47 7 -6 38 -64 69 -130 31 -65 59
-116 61 -113 3 3 -20 61 -53 129 -32 68 -64 144 -72 169 -10 30 -26 52 -49 67
-38 26 -60 28 -111 9z"/>
<path d="M316 1054 c-19 -19 -20 -26 -4 -42 19 -19 29 -14 16 8 -17 26 -6 34
60 41 l57 6 -57 2 c-40 1 -61 -4 -72 -15z"/>
<path d="M470 1000 c-20 -7 -17 -8 22 -9 30 -1 48 -6 50 -14 6 -26 163 -318
166 -309 3 9 -130 270 -160 315 -20 28 -34 31 -78 17z"/>
<path d="M1118 874 l-43 -75 -132 3 c-83 2 -134 -1 -135 -7 -4 -13 143 -27
205 -20 27 3 47 2 45 -2 -1 -5 -16 -42 -32 -83 -16 -41 -34 -80 -40 -86 -10
-11 -108 -47 -111 -41 0 1 -13 21 -28 44 -15 24 -27 50 -27 58 0 22 29 31 53
16 25 -16 44 0 22 19 -20 17 -69 17 -89 0 -24 -19 -19 -51 13 -102 l30 -47
-45 -21 c-74 -36 -86 -90 -20 -90 40 0 93 39 98 71 2 15 18 27 51 39 l49 19
-7 -27 c-23 -90 -35 -165 -35 -225 0 -59 3 -71 24 -92 22 -22 28 -23 55 -14
41 15 109 93 181 209 42 68 75 107 113 136 l54 42 26 -29 c14 -16 39 -32 56
-35 17 -4 31 -10 31 -14 0 -4 10 -10 21 -13 22 -6 22 -6 3 -75 -12 -41 22 -25
34 17 10 32 18 40 45 45 50 9 153 62 170 87 36 51 -33 65 -120 24 -49 -22 -65
-22 -44 0 14 15 84 236 77 242 -3 4 -61 1 -129 -6 -162 -18 -421 -39 -426 -35
-2 2 15 31 38 65 38 57 44 79 21 79 -6 0 -29 -34 -52 -76z m478 -162 c-43
-127 -64 -155 -118 -155 -32 0 -78 37 -78 64 0 26 -19 33 -38 16 -9 -8 -30
-17 -46 -21 -45 -11 -86 -44 -86 -69 0 -44 -143 -256 -202 -300 -23 -18 -29
-18 -44 -6 -41 34 7 302 85 473 l28 62 174 13 c139 10 326 31 360 40 3 0 -13
-52 -35 -117z m133 -119 c-17 -19 -127 -73 -151 -73 -33 0 -7 27 50 53 64 29
81 35 101 36 11 1 11 -2 0 -16z m-195 -69 c3 -8 2 -12 -4 -9 -6 3 -10 10 -10
16 0 14 7 11 14 -7z m-684 -13 c0 -13 -50 -51 -66 -51 -24 0 -15 17 19 39 35
23 47 26 47 12z"/>
<path d="M1010 460 c0 -6 33 -9 83 -9 77 2 79 2 32 9 -72 12 -115 11 -115 0z"/>
<path d="M1005 420 c-4 -6 20 -10 64 -10 41 0 71 4 71 10 0 6 -28 10 -64 10
-36 0 -68 -4 -71 -10z"/>
<path d="M995 290 c3 -5 15 -10 26 -10 10 0 19 5 19 10 0 6 -12 10 -26 10 -14
0 -23 -4 -19 -10z"/>
<path d="M1730 870 c-91 -8 -52 -23 45 -18 41 2 75 0 75 -4 0 -5 -5 -7 -12 -5
-10 2 -115 -164 -117 -186 -3 -22 22 12 64 88 25 47 48 85 51 85 2 0 -16 -41
-42 -91 -25 -50 -43 -93 -40 -96 8 -8 117 217 111 228 -4 5 -21 8 -38 7 -18
-2 -61 -5 -97 -8z"/>
<path d="M1008 863 c18 -2 45 -2 60 0 15 2 0 4 -33 4 -33 0 -45 -2 -27 -4z"/>
<path d="M1268 863 c61 -2 163 -2 225 0 61 1 11 3 -113 3 -124 0 -174 -2 -112
-3z"/>
<path d="M1842 648 c-7 -7 -12 -16 -12 -20 0 -12 28 -10 36 3 10 17 -10 31
-24 17z"/>
<path d="M657 643 c-5 -8 -10 -65 -8 -95 1 -23 29 -23 54 -1 18 17 19 17 16
-2 -3 -12 2 -20 10 -20 17 0 22 116 6 122 -6 2 -21 -18 -33 -43 -26 -52 -36
-54 -22 -4 5 18 7 37 4 41 -6 11 -21 12 -27 2z"/>
<path d="M1912 621 c-12 -33 -92 -84 -92 -58 0 7 5 18 12 25 9 9 9 15 -1 25
-17 16 -43 -18 -39 -53 4 -32 35 -37 82 -15 19 9 40 14 46 10 6 -4 32 7 59 24
26 17 51 31 54 31 4 0 -1 -16 -10 -35 -15 -32 -16 -37 -1 -51 15 -15 20 -14
67 12 58 31 76 48 66 64 -4 7 -24 -3 -55 -25 -26 -19 -51 -35 -54 -35 -3 0 1
16 9 36 8 20 15 43 15 50 0 22 -39 16 -87 -12 l-44 -25 3 27 c4 38 -17 41 -30
5z"/>
<path d="M766 547 c3 -10 9 -15 12 -12 3 3 0 11 -7 18 -10 9 -11 8 -5 -6z"/>
<path d="M1657 471 c-23 -34 -33 -40 -69 -44 -35 -3 -34 -4 10 -3 52 1 53 1
72 44 10 23 18 42 16 42 -2 0 -15 -18 -29 -39z"/>
<path d="M1620 476 c-6 -8 -24 -17 -38 -19 -25 -4 -24 -4 5 -6 23 -1 35 5 43
19 13 23 8 26 -10 6z"/>
<path d="M891 463 c13 -15 35 -17 43 -4 3 5 -8 11 -24 13 -24 4 -27 2 -19 -9z"/>
<path d="M1303 453 c37 -2 96 -2 130 0 34 2 4 3 -68 3 -71 0 -99 -1 -62 -3z"/>
<path d="M1230 421 c0 -9 240 -5 249 4 2 3 -53 5 -122 5 -70 0 -127 -4 -127
-9z"/>
<path d="M766 345 c-39 -102 -33 -109 85 -96 l84 8 -87 2 c-48 0 -89 4 -91 9
-3 4 6 34 19 67 14 33 23 66 22 73 -2 8 -16 -21 -32 -63z"/>
<path d="M870 373 c-39 -62 -36 -78 15 -79 l40 -1 -37 4 c-21 2 -38 7 -38 10
0 16 57 103 70 107 11 3 11 4 -3 5 -11 1 -29 -17 -47 -46z"/>
<path d="M1139 282 c11 -8 9 -11 -10 -15 -13 -3 80 -3 206 0 245 6 314 13 123
13 -63 0 -164 3 -224 6 -73 4 -104 2 -95 -4z"/>
<path d="M860 223 c-32 -12 -70 -57 -70 -84 0 -87 154 -125 218 -53 25 28 29
76 8 94 -13 10 -13 7 -4 -18 10 -25 9 -35 -6 -56 -30 -47 -95 -59 -156 -28
-44 22 -58 70 -29 101 20 21 86 44 101 35 4 -3 8 0 8 5 0 11 -44 14 -70 4z"/>
<path d="M1343 210 c-77 -47 -67 -124 21 -154 98 -34 199 40 160 115 -28 56
-121 76 -181 39z m134 -11 c47 -18 56 -73 17 -110 -20 -19 -36 -24 -78 -24
-69 0 -106 24 -106 68 0 42 8 53 50 71 34 15 68 13 117 -5z"/>
</g>
</svg>
